<?xml version="1.0" standalone="no"?>
<!DOCTYPE svg PUBLIC "-//W3C//DTD SVG 20010904//EN"
 "http://www.w3.org/TR/2001/REC-SVG-20010904/DTD/svg10.dtd">
<svg version="1.0" xmlns="http://www.w3.org/2000/svg"
 width="322.000000pt" height="322.000000pt" viewBox="0 0 322.000000 322.000000"
 preserveAspectRatio="xMidYMid meet">
<metadata>
Created by potrace 1.11, written by Peter Selinger 2001-2013
</metadata>
<g transform="translate(0.000000,322.000000) scale(0.100000,-0.100000)"
fill="#000000" stroke="none">
<path d="M448 3128 c-2 -7 -3 -397 -2 -865 l0 -853 -218 0 c-120 0 -218 -3
-219 -7 -1 -5 -2 -308 -2 -674 l-2 -666 665 1 665 1 0 283 c0 199 4 285 12
290 6 4 98 7 205 6 l193 -1 3 -191 2 -192 730 0 730 0 0 750 0 750 -465 0
-465 0 0 690 0 690 -914 0 c-722 0 -915 -3 -918 -12z"/>
</g>
</svg>
